<svg width="88" height="28" viewBox="0 0 88 28" fill="none" xmlns="http://www.w3.org/2000/svg">
<path d="M1.10889 26.328V1.96667H25.8877V26.328H1.10889ZM21.6302 6.53442H5.36642V21.7603H21.6302V6.53442Z" fill="#3036D4"/>
<path d="M31.7172 26.328V1.57375H35.9747V10.2672H52.2385V1.57375H56.496V26.328H31.7172ZM52.2385 14.7858H35.9747V21.8094H52.2385V14.7858Z" fill="#3036D4"/>
<path d="M86.8914 13.9509C86.8914 15.981 86.565 17.7819 85.9122 19.3536C85.2594 20.9253 84.3653 22.2678 83.23 23.3811C82.123 24.4616 80.8032 25.2966 79.2705 25.886C77.7661 26.4426 76.1483 26.7209 74.4169 26.7209C72.7706 26.7209 71.1953 26.4426 69.691 25.886C68.1867 25.2966 66.8527 24.4616 65.6889 23.3811C64.5536 22.2678 63.6311 20.9253 62.9215 19.3536C62.2403 17.7819 61.8997 15.981 61.8997 13.9509C61.8997 11.9208 62.2403 10.1199 62.9215 8.54817C63.6311 6.97647 64.5536 5.65034 65.6889 4.5698C66.8527 3.48926 68.1867 2.67066 69.691 2.11402C71.1953 1.55737 72.7706 1.27905 74.4169 1.27905C76.0347 1.27905 77.5958 1.55737 79.1002 2.11402C80.6045 2.67066 81.9243 3.48926 83.0597 4.5698C84.2234 5.65034 85.1458 6.97647 85.827 8.54817C86.5366 10.1199 86.8914 11.9208 86.8914 13.9509ZM74.4169 5.65034C73.2815 5.65034 72.2171 5.83043 71.2237 6.19061C70.2587 6.51805 69.4072 7.04195 68.6692 7.76232C67.9312 8.44993 67.3494 9.31764 66.9236 10.3654C66.4979 11.3805 66.285 12.5756 66.285 13.9509C66.285 15.3261 66.4979 16.5376 66.9236 17.5854C67.3494 18.6332 67.917 19.5173 68.6266 20.2377C69.3646 20.9253 70.2303 21.4492 71.2237 21.8094C72.2171 22.1696 73.2815 22.3497 74.4169 22.3497C75.5522 22.3497 76.6166 22.1696 77.61 21.8094C78.6318 21.4492 79.5117 20.9253 80.2497 20.2377C80.9877 19.5173 81.5695 18.6332 81.9953 17.5854C82.421 16.5376 82.6339 15.3261 82.6339 13.9509C82.6339 12.5756 82.421 11.3805 81.9953 10.3654C81.5695 9.31764 80.9877 8.44993 80.2497 7.76232C79.5117 7.04195 78.6318 6.51805 77.61 6.19061C76.6166 5.83043 75.5522 5.65034 74.4169 5.65034Z" fill="#3036D4"/>
<path fill-rule="evenodd" clip-rule="evenodd" d="M74.4167 2.55811C72.8805 2.55811 71.4198 2.81749 70.0295 3.33195C68.6495 3.8426 67.4395 4.58731 66.389 5.56152C65.378 6.52513 64.5513 7.70982 63.909 9.1295C63.3186 10.4958 63.0083 12.0927 63.0083 13.9509C63.0083 15.8091 63.3186 17.4059 63.909 18.7723C64.5516 20.1927 65.3801 21.3968 66.3955 22.3954C67.4469 23.369 68.6581 24.1293 70.0386 24.6714C71.4262 25.1836 72.8839 25.4419 74.4167 25.4419C76.0418 25.4419 77.5424 25.1813 78.9257 24.6703C80.337 24.1267 81.5271 23.3676 82.5133 22.405C83.5276 21.4099 84.3259 20.2123 84.9122 18.8009C85.4824 17.428 85.7825 15.8211 85.7825 13.9509C85.7825 12.0963 85.4595 10.5033 84.8435 9.139L84.8393 9.12963L84.8352 9.12017C84.2238 7.70954 83.4014 6.52918 82.3643 5.5662L82.3591 5.56135L82.3539 5.55643C81.3348 4.58651 80.1417 3.84271 78.7614 3.33195C77.3691 2.81678 75.9224 2.55811 74.4167 2.55811ZM69.3522 0.896083C70.9705 0.297259 72.6604 0 74.4167 0C76.1467 0 77.8222 0.297965 79.4386 0.896083C81.0648 1.4978 82.5096 2.38957 83.76 3.57832C85.0455 4.77338 86.0649 6.24048 86.8145 7.96684C87.6149 9.74364 88 11.7491 88 13.9509C88 16.1409 87.6473 18.1358 86.9119 19.9063C86.1928 21.6376 85.2034 23.1245 83.9479 24.3556L83.946 24.3575C82.7197 25.5545 81.2722 26.4644 79.6209 27.0994L79.6149 27.1017L79.6089 27.1039C77.9852 27.7048 76.2521 28 74.4167 28C72.6604 28 70.9705 27.7027 69.3522 27.1039L69.3432 27.1006L69.3343 27.0971C67.7149 26.4626 66.2647 25.5577 64.9936 24.3775L64.982 24.3667L64.9707 24.3556C63.7229 23.1321 62.7117 21.658 61.938 19.9444L61.9338 19.9351L61.9297 19.9256C61.1604 18.1506 60.7908 16.1487 60.7908 13.9509C60.7908 11.7531 61.1604 9.75115 61.9297 7.97616L61.9338 7.9667L61.938 7.95733C62.7132 6.24032 63.7282 4.77759 64.9832 3.58317L64.9884 3.57825L64.9936 3.5734C66.2694 2.38882 67.7258 1.4979 69.3522 0.896083ZM30.6083 0.294693H37.0833V8.98816H51.1296V0.294693H57.6046V27.6071H30.6083V0.294693ZM32.8258 2.8528V25.049H55.3871V2.8528H53.347V11.5463H34.8658V2.8528H32.8258ZM0 0.687619H26.9963V27.6071H0V0.687619ZM2.21746 3.24572V25.049H24.7788V3.24572H2.21746ZM70.9009 4.96686C72.0083 4.56671 73.1824 4.37129 74.4167 4.37129C75.6481 4.37129 76.8195 4.56579 77.9246 4.96401C79.0738 5.33509 80.091 5.93502 80.9559 6.7764C81.8258 7.58974 82.5052 8.60981 82.996 9.8152C83.5069 11.0362 83.7425 12.4272 83.7425 13.9509C83.7425 15.4788 83.5056 16.8816 82.999 18.1283C82.5081 19.3364 81.8301 20.3703 80.9657 21.2141L80.956 21.2235L80.9462 21.2327C80.0859 22.0343 79.0771 22.629 77.9385 23.031C76.8293 23.4326 75.6533 23.6287 74.4167 23.6287C73.1787 23.6287 72.0014 23.4321 70.8911 23.0296C69.7781 22.6261 68.786 22.0305 67.9298 21.2327L67.9116 21.2157L67.894 21.1979C67.0631 20.3544 66.406 19.3254 65.9196 18.1283C65.413 16.8816 65.1761 15.4788 65.1761 13.9509C65.1761 12.4272 65.4117 11.0363 65.9225 9.81534C66.4133 8.60998 67.0926 7.58995 67.9624 6.7766C68.8183 5.94381 69.802 5.34132 70.9009 4.96686ZM74.4167 6.9294C73.384 6.9294 72.4326 7.093 71.556 7.41082L71.5462 7.41436L71.5364 7.41769C70.7133 7.69696 70.0006 8.13808 69.3852 8.73873L69.3756 8.74816L69.3657 8.75734C68.766 9.3161 68.286 10.0258 67.9274 10.9083L67.9245 10.9155L67.9215 10.9225C67.5828 11.73 67.3936 12.727 67.3936 13.9509C67.3936 15.1734 67.5825 16.1937 67.9274 17.0426C68.2889 17.9322 68.7612 18.6656 69.3415 19.2597C69.9575 19.829 70.6908 20.2755 71.556 20.5892C72.4326 20.907 73.384 21.0706 74.4167 21.0706C75.4494 21.0706 76.4008 20.907 77.2774 20.5892L77.2859 20.5862C78.1842 20.2695 78.9304 19.82 79.543 19.2518C80.15 18.6566 80.6325 17.9254 80.9912 17.0426C81.3361 16.1937 81.525 15.1734 81.525 13.9509C81.525 12.727 81.3357 11.73 80.9971 10.9225L80.9941 10.9155L80.9912 10.9083C80.6326 10.0258 80.1525 9.3161 79.5529 8.75734L79.543 8.74816L79.5334 8.73873C78.929 8.14877 78.1959 7.70588 77.3131 7.423L77.2952 7.41726L77.2774 7.41082C76.4008 7.093 75.4494 6.9294 74.4167 6.9294ZM4.25753 5.25537H22.7388V23.0393H4.25753V5.25537ZM6.47499 7.81348V20.4812H20.5213V7.81348H6.47499ZM34.8658 13.5068H53.347V23.0884H34.8658V13.5068ZM37.0833 16.0649V20.5303H51.1296V16.0649H37.0833Z" fill="#3036D4"/>
<path d="M37 9H51V16H37V9Z" fill="#13165E"/>
<rect x="51" y="9" width="2" height="7" fill="#FFC700"/>
</svg>
