<svg width="96" height="29" viewBox="0 0 96 29" fill="none" xmlns="http://www.w3.org/2000/svg">
<path d="M0 28.8V0.2H4.20803L14.6025 9.48H14.7595L25.1539 0.2H29.362V28.8H24.3375V8.2L17.2089 14.28V28.8H12.1844V14.28L5.02451 8.2V28.8H0Z" fill="#2429AF"/>
<path d="M34.7066 28.8V0.279999L53.6114 0.2C56.1027 0.2 57.945 0.866667 59.1383 2.2C60.3526 3.50667 60.9597 5.48 60.9597 8.12C60.9597 10.76 60.2688 12.6933 58.8871 13.92C59.8083 14.56 60.4887 15.4133 60.9283 16.48C61.3679 17.52 61.5878 18.8667 61.5878 20.52C61.5878 23.2133 60.9806 25.2667 59.7664 26.68C58.5731 28.0667 56.7307 28.76 54.2394 28.76L34.7066 28.8ZM53.0147 5.32H39.7311V11.72H53.0147C54.9198 11.72 55.8724 10.6267 55.8724 8.44C55.8724 6.36 54.9198 5.32 53.0147 5.32ZM53.6428 16.84H39.7311V23.64H53.6428C55.5479 23.64 56.5004 22.4933 56.5004 20.2C56.5004 17.96 55.5479 16.84 53.6428 16.84Z" fill="#2429AF"/>
<path d="M77.3151 29C73.3164 29 70.218 27.7867 68.0198 25.36C65.8216 22.9067 64.7224 19.28 64.7224 14.48C64.7224 9.70667 65.8216 6.10667 68.0198 3.68C70.218 1.22667 73.3897 0 77.5349 0H83.1875C87.3327 0 90.5044 1.22667 92.7027 3.68C94.9009 6.10667 96 9.70667 96 14.48C96 19.28 94.9009 22.9067 92.7027 25.36C90.5044 27.7867 87.3851 29 83.3445 29H77.3151ZM77.8804 5.2C75.5565 5.2 73.7456 5.73333 72.4476 6.8C71.1496 7.86666 70.3331 9.56 69.9982 11.88H90.7243C90.3893 9.56 89.5728 7.86666 88.2748 6.8C86.9768 5.73333 85.1659 5.2 82.8421 5.2H77.8804ZM77.9746 23.8H82.8421C85.1868 23.8 86.9978 23.2667 88.2748 22.2C89.5728 21.1333 90.3893 19.4267 90.7243 17.08H69.9982C70.3331 19.4267 71.1496 21.1333 72.4476 22.2C73.7456 23.2667 75.5879 23.8 77.9746 23.8Z" fill="#2429AF"/>
</svg>
