<svg width="120" height="64" viewBox="0 0 120 64" fill="none" xmlns="http://www.w3.org/2000/svg">
<path fill-rule="evenodd" clip-rule="evenodd" d="M110.868 32.6638C113.186 29.5954 114.176 26.5461 113.768 23.6417C113.359 20.7373 111.566 18.0794 108.491 15.7699C105.412 13.457 101.107 11.5433 95.842 10.1464C85.3169 7.35378 71.1541 6.67893 55.8652 8.82975C40.5763 10.9806 27.1495 15.5367 17.8033 21.1248C13.1283 23.92 9.5181 26.9473 7.1964 30.0199C4.87797 33.0882 3.88794 36.1376 4.29653 39.042C4.70512 41.9464 6.49803 44.6042 9.57301 46.9138C12.6523 49.2267 16.9577 51.1404 22.2224 52.5373C32.7475 55.3299 46.9103 56.0048 62.1992 53.8539C77.4881 51.7031 90.9149 47.147 100.261 41.5589C104.936 38.7637 108.546 35.7364 110.868 32.6638ZM62.3385 54.8442C93.115 50.5146 116.584 36.4824 114.758 23.5024C112.932 10.5224 86.5025 3.50989 55.7259 7.8395C24.9493 12.1691 1.48027 26.2013 3.30628 39.1813C5.13229 52.1613 31.5619 59.1738 62.3385 54.8442Z" fill="#2429AF"/>
<path d="M23.7134 40.6217V23.4617H26.9294L34.8734 29.0297H34.9934L42.9374 23.4617H46.1534V40.6217H42.3134V28.2617L36.8654 31.9097V40.6217H33.0254V31.9097L27.5534 28.2617V40.6217H23.7134Z" fill="#2429AF"/>
<path d="M50.2381 40.6217V23.5097L64.6861 23.4617C66.5901 23.4617 67.9981 23.8617 68.9101 24.6617C69.8381 25.4457 70.3021 26.6297 70.3021 28.2137C70.3021 29.7977 69.7741 30.9577 68.7181 31.6937C69.4221 32.0777 69.9421 32.5897 70.2781 33.2297C70.6141 33.8537 70.7821 34.6617 70.7821 35.6537C70.7821 37.2697 70.3181 38.5017 69.3901 39.3497C68.4781 40.1817 67.0701 40.5977 65.1661 40.5977L50.2381 40.6217ZM64.2301 26.5337H54.0781V30.3737H64.2301C65.6861 30.3737 66.4141 29.7177 66.4141 28.4057C66.4141 27.1577 65.6861 26.5337 64.2301 26.5337ZM64.7101 33.4457H54.0781V37.5257H64.7101C66.1661 37.5257 66.8941 36.8377 66.8941 35.4617C66.8941 34.1177 66.1661 33.4457 64.7101 33.4457Z" fill="#2429AF"/>
<path d="M82.8018 40.7417C79.7458 40.7417 77.3778 40.0137 75.6978 38.5577C74.0178 37.0857 73.1778 34.9097 73.1778 32.0297C73.1778 29.1657 74.0178 27.0057 75.6978 25.5497C77.3778 24.0777 79.8018 23.3417 82.9698 23.3417H87.2898C90.4578 23.3417 92.8818 24.0777 94.5618 25.5497C96.2418 27.0057 97.0817 29.1657 97.0817 32.0297C97.0817 34.9097 96.2418 37.0857 94.5618 38.5577C92.8818 40.0137 90.4978 40.7417 87.4098 40.7417H82.8018ZM83.2338 26.4617C81.4578 26.4617 80.0738 26.7817 79.0818 27.4217C78.0898 28.0617 77.4658 29.0777 77.2098 30.4697H93.0498C92.7938 29.0777 92.1698 28.0617 91.1777 27.4217C90.1858 26.7817 88.8018 26.4617 87.0258 26.4617H83.2338ZM83.3058 37.6217H87.0258C88.8178 37.6217 90.2017 37.3017 91.1777 36.6617C92.1698 36.0217 92.7938 34.9977 93.0498 33.5897H77.2098C77.4658 34.9977 78.0898 36.0217 79.0818 36.6617C80.0738 37.3017 81.4818 37.6217 83.3058 37.6217Z" fill="#2429AF"/>
</svg>
